<svg width="18" height="17" viewBox="0 0 18 17" fill="none" xmlns="http://www.w3.org/2000/svg">
<path d="M6.47135 5.78119L5.79998 9.15688H4.87135L4.9341 8.82433C4.65383 9.07949 4.30874 9.20707 3.8988 9.20707C3.63527 9.20707 3.39266 9.14642 3.17096 9.02511C2.94926 8.90381 2.77148 8.73021 2.63763 8.50433C2.50795 8.27426 2.44312 8.00446 2.44312 7.69492C2.44312 7.32263 2.52468 6.98799 2.68782 6.69099C2.85514 6.38982 3.08102 6.15557 3.36547 5.98825C3.64991 5.81675 3.96364 5.73099 4.30665 5.73099C4.82534 5.73099 5.19135 5.90041 5.40468 6.23923L5.49253 5.78119H6.47135ZM4.19998 8.39766C4.3924 8.39766 4.5639 8.35165 4.71449 8.25962C4.86508 8.16341 4.9822 8.03165 5.06586 7.86433C5.14952 7.69701 5.19135 7.50459 5.19135 7.28707C5.19135 7.05701 5.12233 6.87505 4.98429 6.74119C4.85044 6.60733 4.6622 6.54041 4.41959 6.54041C4.22717 6.54041 4.05566 6.58851 3.90508 6.68472C3.75449 6.77675 3.63736 6.90642 3.5537 7.07374C3.47004 7.24106 3.42821 7.43348 3.42821 7.65099C3.42821 7.88106 3.49514 8.06302 3.629 8.19688C3.76704 8.33073 3.95736 8.39766 4.19998 8.39766Z" fill="url(#paint0_linear)"/>
<path d="M7.68503 9.20707C7.39222 9.20707 7.11405 9.1757 6.85052 9.11296C6.59117 9.04603 6.3883 8.96028 6.24189 8.8557L6.61836 8.14668C6.76477 8.24289 6.94254 8.32028 7.15169 8.37884C7.36503 8.4374 7.57836 8.46668 7.79169 8.46668C8.01339 8.46668 8.17862 8.43949 8.28738 8.38511C8.39614 8.32655 8.45052 8.24498 8.45052 8.14041C8.45052 8.05675 8.40241 7.99609 8.3062 7.95845C8.20999 7.9208 8.05522 7.88106 7.84189 7.83923C7.59928 7.79322 7.39849 7.74302 7.23954 7.68864C7.08477 7.63426 6.94882 7.54642 6.83169 7.42511C6.71875 7.29962 6.66228 7.13021 6.66228 6.91688C6.66228 6.54459 6.81705 6.25387 7.1266 6.04472C7.44032 5.83557 7.85026 5.73099 8.3564 5.73099C8.59065 5.73099 8.81862 5.75609 9.04032 5.80629C9.26202 5.85648 9.45026 5.9255 9.60503 6.01335L9.25366 6.72864C8.97758 6.55714 8.64503 6.47139 8.25601 6.47139C8.04268 6.47139 7.87954 6.50276 7.7666 6.5655C7.65784 6.62825 7.60346 6.70773 7.60346 6.80394C7.60346 6.89178 7.65156 6.95662 7.74777 6.99845C7.84398 7.03609 8.00503 7.07792 8.23091 7.12394C8.46934 7.16995 8.66385 7.22014 8.81444 7.27452C8.96921 7.32472 9.10307 7.41047 9.21601 7.53178C9.32895 7.65309 9.38542 7.81831 9.38542 8.02747C9.38542 8.40394 9.22647 8.69465 8.90856 8.89962C8.59483 9.10459 8.18699 9.20707 7.68503 9.20707Z" fill="url(#paint1_linear)"/>
<path d="M12.0537 7.24943L13.2144 9.15688H12.0788L11.2756 7.8455L10.6795 8.34119L10.5164 9.15688H9.53758L10.4662 4.50119H11.445L10.9242 7.10511L12.5431 5.78119H13.8168L12.0537 7.24943Z" fill="url(#paint2_linear)"/>
<path d="M1 3.82353V2.2549C1 1.56184 1.56184 1 2.2549 1H15.7451C16.4382 1 17 1.56184 17 2.2549V11.0392C17 11.7323 16.4382 12.2941 15.7451 12.2941H13.549L14.2829 15.7191C14.3471 16.0185 13.9884 16.223 13.7634 16.0154L10.4118 12.9216H2.2549C1.56184 12.9216 1 12.3597 1 11.6667V11.0392" stroke="url(#paint3_linear)" stroke-width="1.3"/>
<defs>
<linearGradient id="paint0_linear" x1="2.44312" y1="4.50119" x2="5.08649" y2="11.9661" gradientUnits="userSpaceOnUse">
<stop stop-color="#E73F5D"/>
<stop offset="1" stop-color="#FF59F8"/>
</linearGradient>
<linearGradient id="paint1_linear" x1="2.44312" y1="4.50119" x2="5.08649" y2="11.9661" gradientUnits="userSpaceOnUse">
<stop stop-color="#E73F5D"/>
<stop offset="1" stop-color="#FF59F8"/>
</linearGradient>
<linearGradient id="paint2_linear" x1="2.44312" y1="4.50119" x2="5.08649" y2="11.9661" gradientUnits="userSpaceOnUse">
<stop stop-color="#E73F5D"/>
<stop offset="1" stop-color="#FF59F8"/>
</linearGradient>
<linearGradient id="paint3_linear" x1="1" y1="1" x2="14.1765" y2="17.3137" gradientUnits="userSpaceOnUse">
<stop stop-color="#E73F5D"/>
<stop offset="1" stop-color="#FF59F8"/>
</linearGradient>
</defs>
</svg>
